<?xml version="1.0" standalone="no"?>
<!DOCTYPE svg PUBLIC "-//W3C//DTD SVG 20010904//EN"
 "http://www.w3.org/TR/2001/REC-SVG-20010904/DTD/svg10.dtd">
<svg version="1.0" xmlns="http://www.w3.org/2000/svg"
 width="2000.000000pt" height="2000.000000pt" viewBox="0 0 2000.000000 2000.000000"
 preserveAspectRatio="xMidYMid meet">

<g transform="translate(0.000000,2000.000000) scale(0.100000,-0.100000)"
fill="#000000" stroke="none">
<path d="M9655 14994 c-1553 -121 -2921 -915 -3779 -2193 -90 -134 -147 -227
-203 -331 -13 -25 -17 -35 -7 -22 661 885 1602 1530 2709 1857 1221 360 2508
306 3710 -158 888 -343 1698 -954 2249 -1699 54 -74 -76 149 -182 311 -815
1243 -2102 2033 -3612 2217 -129 15 -752 28 -885 18z"/>
<path d="M9610 13024 c-454 -16 -697 -28 -945 -45 -319 -21 -745 -55 -814 -65
l-44 -6 53 -29 c66 -36 90 -57 90 -79 0 -9 -52 -106 -115 -216 -64 -109 -184
-319 -268 -466 -146 -256 -154 -268 -192 -283 -23 -8 -56 -28 -75 -44 l-35
-29 19 -36 c24 -46 90 -107 148 -138 l43 -23 610 -6 c793 -8 3627 -8 4175 0
417 6 426 6 472 29 60 30 129 90 153 136 l19 35 -23 25 c-13 14 -47 35 -75 47
-50 20 -54 25 -125 147 -242 417 -461 804 -461 816 0 20 49 65 100 91 l44 23
-39 6 c-111 17 -994 80 -1360 96 -225 10 -1183 20 -1355 14z m144 -119 l16
-25 306 0 305 0 26 26 25 25 347 -15 c325 -15 658 -39 708 -51 l23 -5 -21 -33
-21 -32 -102 0 c-89 0 -108 -3 -160 -28 -144 -67 -277 -280 -346 -553 l-10
-41 -262 -6 c-334 -9 -682 -9 -1015 0 l-262 6 -21 71 c-31 105 -78 223 -118
295 -49 89 -147 190 -219 227 -52 26 -68 29 -162 30 -103 1 -104 1 -118 29 -8
15 -11 31 -6 35 12 12 353 40 668 55 414 19 400 19 419 -10z m-1594 -341 c22
-39 57 -111 77 -160 19 -49 36 -90 37 -91 1 -1 98 5 216 13 118 7 285 18 370
23 85 6 190 13 232 17 l78 7 30 -66 c17 -36 39 -102 48 -146 l17 -81 55 -16
c192 -56 309 -162 310 -281 l0 -43 445 0 445 0 0 42 c0 55 32 118 82 164 43
39 174 104 245 123 40 11 42 13 53 67 18 87 47 164 76 202 l27 34 76 -6 c42
-3 146 -11 231 -16 252 -15 460 -29 532 -35 l66 -5 12 38 c20 62 106 234 143
285 l35 49 81 -132 c153 -247 261 -444 261 -477 0 -28 -309 111 -367 166 -18
16 -33 28 -33 25 0 -2 14 -32 31 -66 42 -83 123 -166 209 -213 124 -68 170
-136 170 -252 l0 -53 -2360 0 -2360 0 0 53 c0 116 46 184 171 252 90 50 170
128 209 205 38 76 38 86 -2 49 -56 -52 -378 -195 -378 -169 0 32 144 287 283
504 l70 108 18 -23 c10 -13 36 -56 59 -95z"/>
<path d="M8267 12060 c-54 -43 -49 -128 8 -150 16 -6 189 -10 436 -10 l411 0
29 29 c20 20 29 39 29 61 0 22 -9 41 -29 61 l-29 29 -415 0 c-399 0 -415 -1
-440 -20z"/>
<path d="M10999 12051 c-20 -20 -29 -39 -29 -61 0 -22 9 -41 29 -61 l29 -29
411 0 c247 0 420 4 436 10 15 6 32 24 41 45 12 31 12 39 0 70 -9 21 -26 39
-41 45 -16 6 -189 10 -436 10 l-411 0 -29 -29z"/>
<path d="M7036 11508 c94 -159 238 -347 293 -383 20 -13 97 -46 171 -73 526
-193 852 -402 952 -612 20 -41 44 -101 54 -132 26 -84 29 -63 5 27 -67 242
-208 432 -432 581 -134 89 -392 206 -589 266 -93 28 -198 76 -247 111 -24 17
-79 75 -123 129 -72 88 -105 121 -84 86z"/>
<path d="M12991 11422 c-118 -145 -149 -163 -426 -259 -464 -160 -734 -347
-881 -608 -39 -71 -89 -209 -98 -270 -5 -32 -2 -27 18 27 69 189 147 289 319
406 180 122 390 224 687 333 74 28 152 62 173 76 58 40 197 222 291 381 20 34
-11 2 -83 -86z"/>
<path d="M14618 11200 l-26 -33 38 -81 c45 -97 92 -240 117 -356 26 -121 25
-416 -1 -555 -34 -181 -106 -389 -159 -463 -58 -80 -188 -302 -232 -397 -92
-197 -121 -328 -111 -490 13 -217 76 -352 204 -434 58 -37 127 -56 173 -47 74
13 152 126 189 273 50 192 55 275 55 833 -1 516 -7 683 -41 990 -29 277 -89
557 -152 719 l-29 74 -25 -33z"/>
<path d="M5442 11168 c-90 -241 -141 -511 -178 -938 -21 -247 -31 -1072 -15
-1265 28 -336 85 -521 183 -595 98 -73 292 19 368 173 51 105 64 176 64 332 0
123 -4 151 -27 227 -52 171 -167 396 -307 603 -106 155 -190 486 -190 744 0
211 40 402 129 607 l48 111 -21 26 c-12 15 -25 27 -28 27 -4 0 -15 -24 -26
-52z"/>
<path d="M5845 10638 c-37 -96 -55 -385 -35 -544 29 -238 115 -490 265 -788
139 -273 145 -325 60 -569 -30 -88 -57 -180 -61 -206 -6 -44 -3 -51 25 -83 93
-106 373 -187 793 -227 390 -38 881 -53 990 -30 105 22 168 72 168 133 0 116
-177 305 -468 503 -241 165 -455 274 -668 343 -246 79 -356 119 -420 155 -189
106 -451 451 -486 641 -17 94 -11 100 63 59 194 -110 655 -209 1321 -285 222
-25 271 -25 327 0 53 24 51 28 -62 111 -287 214 -813 454 -1582 724 -235 82
-224 79 -230 63z m395 -210 c0 -18 6 -56 14 -84 36 -136 128 -235 289 -314
174 -84 363 -128 727 -169 96 -11 224 -26 284 -32 72 -9 110 -17 113 -26 10
-25 -6 -27 -115 -15 -59 7 -195 21 -302 33 -359 37 -559 79 -720 148 -202 87
-306 207 -330 380 -12 85 -7 111 21 111 15 0 19 -7 19 -32z"/>
<path d="M14025 10571 c-845 -301 -1377 -549 -1623 -759 -59 -49 -58 -59 7
-81 48 -16 106 -14 306 9 679 78 1141 177 1328 286 32 19 61 34 64 34 12 0 -7
-119 -27 -173 -63 -169 -302 -465 -440 -548 -82 -49 -171 -83 -370 -144 -242
-75 -409 -154 -678 -325 -333 -212 -557 -443 -539 -558 7 -46 59 -95 120 -112
65 -19 346 -24 611 -11 674 33 1061 110 1219 241 30 26 37 38 37 68 0 49 -18
112 -69 252 -52 141 -63 242 -37 335 10 32 57 137 105 234 194 387 271 660
271 961 0 156 -31 359 -56 366 -5 2 -108 -32 -229 -75z m-117 -153 c2 -21 -2
-63 -8 -95 -37 -201 -208 -339 -522 -418 -162 -41 -266 -56 -593 -90 -137 -14
-272 -28 -299 -32 -43 -5 -48 -4 -44 13 4 21 11 23 258 49 332 34 444 52 615
95 204 51 354 126 436 218 59 66 100 159 107 238 4 59 7 65 26 62 16 -2 22
-11 24 -40z"/>
<path d="M8123 9264 c-29 -14 -62 -37 -73 -51 -20 -26 -27 -53 -12 -53 4 0 57
-7 117 -15 179 -23 409 -44 901 -80 152 -11 206 -19 267 -39 77 -26 273 -120
513 -247 93 -49 142 -69 168 -69 26 0 67 18 149 63 177 101 358 194 435 226
111 46 190 60 447 76 954 63 945 63 945 80 0 24 -79 84 -132 100 -82 26 -158
29 -400 16 -897 -46 -2101 -44 -2918 4 -328 20 -344 19 -407 -11z"/>
<path d="M7918 8724 c-52 -33 -54 -42 -13 -59 148 -63 486 -96 1145 -115 195
-5 478 -17 629 -27 286 -17 449 -15 1396 18 387 13 721 44 860 80 73 19 195
60 200 69 9 14 -79 39 -100 28 -76 -43 -401 -81 -935 -110 -314 -17 -1777 -17
-2100 0 -609 32 -942 73 -1025 126 -17 11 -25 10 -57 -10z"/>
<path d="M5247 8303 c-14 -13 -6 -42 18 -71 14 -17 25 -33 25 -37 0 -19 -119
4 -178 35 -34 18 -64 31 -65 29 -2 -2 -16 -25 -31 -51 -29 -51 -55 -65 -105
-55 -32 7 -57 -13 -48 -36 3 -8 40 -40 84 -73 l78 -59 -65 -10 -65 -10 47 -33
c116 -80 355 -181 595 -251 634 -185 1701 -330 2873 -390 626 -33 758 -36
1580 -36 947 0 1332 12 2070 65 1182 86 2138 246 2656 445 140 54 291 127 346
168 l43 32 -70 10 -70 11 65 47 c36 27 76 56 90 66 21 16 23 22 14 37 -9 14
-21 18 -50 16 -63 -5 -82 4 -109 58 -28 55 -29 55 -102 12 -38 -21 -163 -44
-163 -30 0 3 14 19 30 36 30 31 39 65 21 77 -6 3 -56 -15 -113 -40 -674 -300
-1905 -510 -3433 -585 -666 -33 -1570 -37 -2195 -10 -1645 70 -2938 278 -3637
586 -133 59 -127 57 -136 47z"/>
<path d="M5951 7025 c316 -436 754 -859 1204 -1162 367 -246 830 -473 1244
-610 705 -232 1458 -306 2216 -217 1087 127 2111 611 2890 1365 214 209 384
403 544 624 72 100 72 100 15 35 -98 -112 -365 -371 -495 -481 -573 -484
-1208 -825 -1944 -1043 -1035 -307 -2178 -311 -3215 -11 -756 219 -1439 586
-2010 1079 -116 100 -375 355 -464 456 l-57 65 72 -100z"/>
</g>
</svg>
